# xmcd
#
# Track frame offsets:
#	150
#	20650
#	39259
#	55595
#	70088
#	88599
#	114694
#	127625
#	145932
#	164954
#	190875
#	215099
#
# Disc length: 3247 seconds
#
# Revision: 1
# Processed by: cddbd v1.5.1PL2 Copyright (c) Steve Scherf et al.
# Submitted via: audiograbber 1.83.01
#
DISCID=aa0cad0c
DTITLE=Prince - 3121
DYEAR=2006
DGENRE=R&B
TTITLE0=3121
TTITLE1=Lolita
TTITLE2=Te Amo Corazon
TTITLE3=Black Sweat
TTITLE4=Lincense And Candles
TTITLE5=Love
TTITLE6=Satisfied
TTITLE7=Fury
TTITLE8=The Word
TTITLE9=Beautiful, Loved And Blessed
TTITLE10=Dance, The 
TTITLE11=Get On The Boat
EXTD=
EXTT0=
EXTT1=
EXTT2=
EXTT3=
EXTT4=
EXTT5=
EXTT6=
EXTT7=
EXTT8=
EXTT9=
EXTT10=
EXTT11=
PLAYORDER=
